<?xml version="1.0" encoding="utf-8" standalone="no"?>
<!DOCTYPE svg PUBLIC "-//W3C//DTD SVG 1.1//EN"
  "http://www.w3.org/Graphics/SVG/1.1/DTD/svg11.dtd">
<svg xmlns:xlink="http://www.w3.org/1999/xlink" width="276.886287pt" height="154.507563pt" viewBox="0 0 276.886287 154.507563" xmlns="http://www.w3.org/2000/svg" version="1.1">
 <metadata>
  <rdf:RDF xmlns:dc="http://purl.org/dc/elements/1.1/" xmlns:cc="http://creativecommons.org/ns#" xmlns:rdf="http://www.w3.org/1999/02/22-rdf-syntax-ns#">
   <cc:Work>
    <dc:type rdf:resource="http://purl.org/dc/dcmitype/StillImage"/>
    <dc:date>2026-05-24T10:11:54.319700</dc:date>
    <dc:format>image/svg+xml</dc:format>
    <dc:creator>
     <cc:Agent>
      <dc:title>Matplotlib v3.10.8, https://matplotlib.org/</dc:title>
     </cc:Agent>
    </dc:creator>
   </cc:Work>
  </rdf:RDF>
 </metadata>
 <defs>
  <style type="text/css">*{stroke-linejoin: round; stroke-linecap: butt}</style>
 </defs>
 <g id="figure_1">
  <g id="patch_1">
   <path d="M -0 154.507563 
L 276.886287 154.507563 
L 276.886287 0 
L -0 0 
z
" style="fill: #ffffff"/>
  </g>
  <g id="axes_1">
   <g id="patch_2">
    <path d="M 65.844658 127.332 
L 266.040658 127.332 
L 266.040658 7.2 
L 65.844658 7.2 
z
" style="fill: #ffffff"/>
   </g>
   <g id="line2d_1">
    <path d="M 65.844658 127.332 
L 65.844658 7.2 
" clip-path="url(#pa03fd606f4)" style="fill: none; stroke: #e0e0e0; stroke-width: 0.6; stroke-linecap: square"/>
   </g>
   <g id="line2d_2">
    <path d="M 162.092735 127.332 
L 162.092735 7.2 
" clip-path="url(#pa03fd606f4)" style="fill: none; stroke: #e0e0e0; stroke-width: 0.6; stroke-linecap: square"/>
   </g>
   <g id="line2d_3">
    <path d="M 258.340812 127.332 
L 258.340812 7.2 
" clip-path="url(#pa03fd606f4)" style="fill: none; stroke: #e0e0e0; stroke-width: 0.6; stroke-linecap: square"/>
   </g>
   <g id="patch_3">
    <path d="M 66.056403 35.332177 
L 258.129066 35.332177 
Q 258.340812 35.332177 258.340812 31.150367 
L 258.340812 31.150367 
Q 258.340812 26.968557 258.129066 26.968557 
L 66.056403 26.968557 
Q 65.844658 26.968557 65.844658 31.150367 
L 65.844658 31.150367 
Q 65.844658 35.332177 66.056403 35.332177 
z
" clip-path="url(#pa03fd606f4)" style="fill: #f0f0f0"/>
   </g>
   <g id="patch_4">
    <path d="M 66.056403 51.679253 
L 258.129066 51.679253 
Q 258.340812 51.679253 258.340812 47.497443 
L 258.340812 47.497443 
Q 258.340812 43.315633 258.129066 43.315633 
L 66.056403 43.315633 
Q 65.844658 43.315633 65.844658 47.497443 
L 65.844658 47.497443 
Q 65.844658 51.679253 66.056403 51.679253 
z
" clip-path="url(#pa03fd606f4)" style="fill: #f0f0f0"/>
   </g>
   <g id="patch_5">
    <path d="M 66.056403 101.100646 
L 258.129066 101.100646 
Q 258.340812 101.100646 258.340812 96.918835 
L 258.340812 96.918835 
Q 258.340812 92.737025 258.129066 92.737025 
L 66.056403 92.737025 
Q 65.844658 92.737025 65.844658 96.918835 
L 65.844658 96.918835 
Q 65.844658 101.100646 66.056403 101.100646 
z
" clip-path="url(#pa03fd606f4)" style="fill: #f0f0f0"/>
   </g>
   <g id="patch_6">
    <path d="M 66.056403 117.447722 
L 258.129066 117.447722 
Q 258.340812 117.447722 258.340812 113.265911 
L 258.340812 113.265911 
Q 258.340812 109.084101 258.129066 109.084101 
L 66.056403 109.084101 
Q 65.844658 109.084101 65.844658 113.265911 
L 65.844658 113.265911 
Q 65.844658 117.447722 66.056403 117.447722 
z
" clip-path="url(#pa03fd606f4)" style="fill: #f0f0f0"/>
   </g>
   <g id="matplotlib.axis_1">
    <g id="xtick_1">
     <g id="line2d_4"/>
     <g id="text_1">
      <text style="font-size: 6.8px; font-family: 'Inter', 'Arial', 'Helvetica', 'DejaVu Sans', sans-serif; text-anchor: middle; fill: #6d6a64" x="65.844658" y="134.199313" transform="rotate(-0 65.844658 134.199313)">0</text>
     </g>
    </g>
    <g id="xtick_2">
     <g id="line2d_5"/>
     <g id="text_2">
      <text style="font-size: 6.8px; font-family: 'Inter', 'Arial', 'Helvetica', 'DejaVu Sans', sans-serif; text-anchor: middle; fill: #6d6a64" x="162.092735" y="134.199313" transform="rotate(-0 162.092735 134.199313)">50</text>
     </g>
    </g>
    <g id="xtick_3">
     <g id="line2d_6"/>
     <g id="text_3">
      <text style="font-size: 6.8px; font-family: 'Inter', 'Arial', 'Helvetica', 'DejaVu Sans', sans-serif; text-anchor: middle; fill: #6d6a64" x="258.340812" y="134.199313" transform="rotate(-0 258.340812 134.199313)">100</text>
     </g>
    </g>
    <g id="text_4">
     <text style="font-size: 7.2px; font-family: 'Inter', 'Arial', 'Helvetica', 'DejaVu Sans', sans-serif; text-anchor: middle; fill: #6d6a64" x="165.942658" y="145.792188" transform="rotate(-0 165.942658 145.792188)">Closed-loop success (%)</text>
    </g>
   </g>
   <g id="matplotlib.axis_2"/>
   <g id="patch_7">
    <path d="M 66.056403 35.332177 
L 67.557873 35.332177 
Q 67.769619 35.332177 67.769619 31.150367 
L 67.769619 31.150367 
Q 67.769619 26.968557 67.557873 26.968557 
L 66.056403 26.968557 
Q 65.844658 26.968557 65.844658 31.150367 
L 65.844658 31.150367 
Q 65.844658 35.332177 66.056403 35.332177 
z
" clip-path="url(#pa03fd606f4)" style="fill: #e59381"/>
   </g>
   <g id="patch_8">
    <path d="M 66.056403 51.679253 
L 246.579297 51.679253 
Q 246.791042 51.679253 246.791042 47.497443 
L 246.791042 47.497443 
Q 246.791042 43.315633 246.579297 43.315633 
L 66.056403 43.315633 
Q 65.844658 43.315633 65.844658 47.497443 
L 65.844658 47.497443 
Q 65.844658 51.679253 66.056403 51.679253 
z
" clip-path="url(#pa03fd606f4)" style="fill: #80bfe5"/>
   </g>
   <g id="patch_9">
    <path d="M 66.056403 101.100646 
L 196.530297 101.100646 
Q 196.742042 101.100646 196.742042 96.918835 
L 196.742042 96.918835 
Q 196.742042 92.737025 196.530297 92.737025 
L 66.056403 92.737025 
Q 65.844658 92.737025 65.844658 96.918835 
L 65.844658 96.918835 
Q 65.844658 101.100646 66.056403 101.100646 
z
" clip-path="url(#pa03fd606f4)" style="fill: #e59381"/>
   </g>
   <g id="patch_10">
    <path d="M 66.056403 117.447722 
L 250.42922 117.447722 
Q 250.640965 117.447722 250.640965 113.265911 
L 250.640965 113.265911 
Q 250.640965 109.084101 250.42922 109.084101 
L 66.056403 109.084101 
Q 65.844658 109.084101 65.844658 113.265911 
L 65.844658 113.265911 
Q 65.844658 117.447722 66.056403 117.447722 
z
" clip-path="url(#pa03fd606f4)" style="fill: #80bfe5"/>
   </g>
   <g id="text_5">
    <text style="font-size: 7.2px; font-family: 'Inter', 'Arial', 'Helvetica', 'DejaVu Sans', sans-serif; text-anchor: end; fill: #242424" x="61.22475" y="33.015617" transform="rotate(-0 61.22475 33.015617)">Observation only</text>
   </g>
   <g id="text_6">
    <text style="font-weight: 700; font-size: 7.4px; font-family: 'Inter', 'Arial', 'Helvetica', 'DejaVu Sans', sans-serif; text-anchor: start; fill: #e59381" x="72.004535" y="33.068586" transform="rotate(-0 72.004535 33.068586)">0-1%</text>
   </g>
   <g id="text_7">
    <text style="font-size: 7.2px; font-family: 'Inter', 'Arial', 'Helvetica', 'DejaVu Sans', sans-serif; text-anchor: end; fill: #242424" x="61.22475" y="49.358756" transform="rotate(-0 61.22475 49.358756)">Oracle context</text>
   </g>
   <g id="text_8">
    <text style="font-weight: 700; font-size: 7.4px; font-family: 'Inter', 'Arial', 'Helvetica', 'DejaVu Sans', sans-serif; text-anchor: start; fill: #80bfe5" x="251.025958" y="49.415662" transform="rotate(-0 251.025958 49.415662)">94%</text>
   </g>
   <g id="text_9">
    <text style="font-size: 7.2px; font-family: 'Inter', 'Arial', 'Helvetica', 'DejaVu Sans', sans-serif; text-anchor: end; fill: #242424" x="61.22475" y="98.784085" transform="rotate(-0 61.22475 98.784085)">Observation only</text>
   </g>
   <g id="text_10">
    <text style="font-weight: 700; font-size: 7.4px; font-family: 'Inter', 'Arial', 'Helvetica', 'DejaVu Sans', sans-serif; text-anchor: start; fill: #e59381" x="200.976958" y="98.837054" transform="rotate(-0 200.976958 98.837054)">68%</text>
   </g>
   <g id="text_11">
    <text style="font-size: 7.2px; font-family: 'Inter', 'Arial', 'Helvetica', 'DejaVu Sans', sans-serif; text-anchor: end; fill: #242424" x="61.22475" y="115.127224" transform="rotate(-0 61.22475 115.127224)">Oracle context</text>
   </g>
   <g id="text_12">
    <text style="font-weight: 700; font-size: 7.4px; font-family: 'Inter', 'Arial', 'Helvetica', 'DejaVu Sans', sans-serif; text-anchor: start; fill: #80bfe5" x="254.875881" y="115.18413" transform="rotate(-0 254.875881 115.18413)">96%</text>
   </g>
   <g id="text_13">
    <text style="font-weight: 700; font-size: 7.6px; font-family: 'Inter', 'Arial', 'Helvetica', 'DejaVu Sans', sans-serif; text-anchor: start; fill: #46423d" x="65.844658" y="17.105124" transform="rotate(-0 65.844658 17.105124)">Fixed-order demos</text>
   </g>
   <g id="text_14">
    <text style="font-weight: 700; font-size: 7.6px; font-family: 'Inter', 'Arial', 'Helvetica', 'DejaVu Sans', sans-serif; text-anchor: start; fill: #46423d" x="65.844658" y="82.873593" transform="rotate(-0 65.844658 82.873593)">Balanced-order demos</text>
   </g>
  </g>
 </g>
 <defs>
  <clipPath id="pa03fd606f4">
   <rect x="65.844658" y="7.2" width="200.196" height="120.132"/>
  </clipPath>
 </defs>
</svg>
